<?xml version="1.0" standalone="no"?>
<!DOCTYPE svg PUBLIC "-//W3C//DTD SVG 1.1//EN" "http://www.w3.org/Graphics/SVG/1.1/DTD/svg11.dtd">
<svg xmlns="http://www.w3.org/2000/svg">
<defs >
<font id="Varta" horiz-adv-x="1010" ><font-face
    font-family="Varta Light Medium"
    units-per-em="2048"
    panose-1="0 0 0 0 0 0 0 0 0 0"
    ascent="1902"
    descent="-1068"
    alphabetic="0" />
<glyph unicode=" " horiz-adv-x="416" />
<glyph unicode="!" horiz-adv-x="600" d="M239 411L215 1174L210 1372H390L385 1174L360 411H239ZM300 -25Q248 -25 211 12T174 107Q174 167 211 204T300 242Q352 242 389 205T426 107Q426 50 389 13T300 -25Z" />
<glyph unicode="&quot;" horiz-adv-x="888" d="M204 851L170 1219L164 1413H352L346 1219L311 851H204ZM576 851L542 1219L536 1413H724L718 1219L683 851H576Z" />
<glyph unicode="#" horiz-adv-x="1023" d="M184 0L235 416H72V538H250L286 836H113V959H301L348 1331H461L415 959H682L731 1331H844L796 959H961V836H782L746 538H920V416H731L681 0H567L616 416H349L299 0H184ZM364 538H631L668 836H401L364 538Z" />
<glyph unicode="$" horiz-adv-x="1023" d="M454 -225V-22Q356 -12 263 23T104 119L186 244Q253 188 331 156T502 123Q614 123 669 179T725 329Q725 409 684 462T578 553T441 627T304 707T198 817T156 982Q156 1120 238 1212T454 1326V1532H583V1328Q681 1317 749
1282T874 1189L780 1081Q722 1136 669 1159T533 1182Q441 1182 386 1130T330 990Q330 918 371 871T477 790T615 721T752 640T858 522T900 341Q900 195 815 100T583 -18V-225H454Z" />
<glyph unicode="%" horiz-adv-x="1693" d="M417 -25L1157 1368H1274L534 -25H417ZM378 520Q240 520 156 631T71 946Q71 1148 155 1258T378 1368Q515 1368 600 1258T685 946Q685 743 600 632T378 520ZM378 629Q454 629 502 708T550 946Q550 1106 502 1183T378 1260Q300
1260 252 1183T204 946Q204 788 252 709T378 629ZM1317 -25Q1179 -25 1095 86T1010 401Q1010 603 1094 713T1317 823Q1455 823 1539 713T1624 401Q1624 198 1540 87T1317 -25ZM1317 85Q1394 85 1442 164T1490 401Q1490 560 1442 637T1317 715Q1241 715 1192 638T1143
401Q1143 243 1192 164T1317 85Z" />
<glyph unicode="&amp;" horiz-adv-x="1256" d="M477 -25Q353 -25 261 23T117 156T65 349Q65 442 103 510T203 632T332 733Q287 816 264 896T240 1050Q240 1140 278 1212T387 1326T551 1368Q678 1368 751 1295T824 1102Q824 1009 780 940T667 814T524 704Q585 604
674 507T856 335Q918 416 965 514T1043 727H1208Q1169 596 1112 475T975 249Q1044 202 1107 170T1225 123L1177 -25Q1106 -4 1028 33T868 129Q791 59 695 17T477 -25ZM498 117Q567 117 631 145T748 222Q651 306 560 408T401 615Q331 561 284 501T237 359Q237 250
312 184T498 117ZM456 815Q517 855 567 895T649 985T680 1097Q680 1155 648 1198T550 1242Q476 1242 434 1187T392 1050Q392 996 410 936T456 815Z" />
<glyph unicode="&apos;" horiz-adv-x="518" d="M204 851L170 1219L164 1413H352L346 1219L311 851H204Z" />
<glyph unicode="(" horiz-adv-x="627" d="M437 -361Q352 -223 292 -84T199 215T167 568Q167 763 199 922T291 1222T437 1500L548 1449Q430 1254 373 1037T316 568Q316 318 373 102T548 -310L437 -361Z" />
<glyph unicode=")" horiz-adv-x="627" d="M192 -361Q277 -223 337 -84T430 215T462 568Q462 763 430 922T338 1222T192 1500L81 1449Q199 1254 256 1037T313 568Q313 318 256 102T81 -310L192 -361Z" />
<glyph unicode="*" horiz-adv-x="862" d="M442 843L326 965L302 964L157 1039L233 1185L224 1206L251 1372L410 1344L430 1359L593 1384L617 1221L637 1209L712 1058L567 986L561 965L442 843Z" />
<glyph unicode="+" horiz-adv-x="1023" d="M441 212V609H70V742H441V1141H581V742H953V609H581V212H441Z" />
<glyph unicode="," horiz-adv-x="518" d="M139 -370L96 -269Q184 -231 234 -157T285 1Q279 0 274 0T264 -1Q213 -1 176 30T138 120Q138 177 176 209T267 242Q337 242 376 188T415 38Q415 -97 341 -207T139 -370Z" />
<glyph unicode="-" horiz-adv-x="640" d="M85 447V582H558V447H85Z" />
<glyph unicode="." horiz-adv-x="518" d="M259 -25Q207 -25 170 12T133 107Q133 167 170 204T259 242Q312 242 348 205T385 107Q385 50 349 13T259 -25Z" />
<glyph unicode="/" horiz-adv-x="716" d="M21 -328L558 1454H686L151 -328H21Z" />
<glyph unicode="0" horiz-adv-x="1023" d="M511 -25Q310 -25 200 161T89 680Q89 1014 199 1191T511 1368Q713 1368 823 1191T934 680Q934 348 824 162T511 -25ZM511 118Q626 118 693 255T761 680Q761 970 694 1098T511 1226Q397 1226 329 1098T261 680Q261 392
329 255T511 118Z" />
<glyph unicode="1" horiz-adv-x="1023" d="M161 0V145H458V1144L220 1130V1248Q311 1264 378 1288T500 1346H637V145H904V0H161Z" />
<glyph unicode="2" horiz-adv-x="1023" d="M82 0V105Q373 395 533 604T693 970Q693 1084 632 1154T448 1225Q367 1225 298 1182T173 1073L71 1174Q154 1265 248 1316T470 1368Q653 1368 759 1264T865 980Q865 856 797 723T611 445T341 141Q394 145 451 149T560
153H931V0H82Z" />
<glyph unicode="3" horiz-adv-x="1023" d="M487 -25Q330 -25 225 31T53 160L142 276Q201 215 281 169T475 123Q592 123 665 186T739 360Q739 436 701 494T572 584T327 616V751Q465 751 544 788T658 884T692 1011Q692 1111 634 1168T472 1225Q391 1225 323 1191T196
1099L101 1211Q178 1283 272 1325T481 1368Q660 1368 766 1276T873 1023Q873 907 809 820T638 694V686Q755 659 836 574T918 355Q918 239 862 154T708 22T487 -25Z" />
<glyph unicode="4" horiz-adv-x="1023" d="M622 0V357H36V475L588 1347H790V499H966V357H790V0H622ZM221 499H622V900Q622 935 623 982T627 1078T632 1161H624Q599 1113 572 1065T517 967L221 499Z" />
<glyph unicode="5" horiz-adv-x="1023" d="M481 -25Q324 -25 226 28T59 151L144 267Q203 209 276 166T463 123Q542 123 606 160T707 265T745 426Q745 560 674 643T472 727Q405 727 358 707T251 649L158 707L200 1347H859V1194H355L321 809Q367 833 413 847T518
861Q633 861 725 814T871 671T925 431Q925 287 862 185T698 29T481 -25Z" />
<glyph unicode="6" horiz-adv-x="1023" d="M551 -25Q423 -25 320 50T157 273T97 636Q97 900 168 1061T353 1295T597 1368Q705 1368 782 1334T915 1239L818 1126Q779 1173 722 1196T604 1220Q515 1220 440 1171T317 1003T266 678Q327 753 408 794T567 835Q736 835
838 727T941 402Q941 276 888 180T746 29T551 -25ZM551 115Q614 115 664 151T744 251T773 402Q773 544 714 623T537 702Q477 702 406 666T270 538Q282 339 356 227T551 115Z" />
<glyph unicode="7" horiz-adv-x="1023" d="M360 0Q369 245 409 448T528 834T736 1194H90V1347H937V1237Q821 1090 748 950T632 663T570 355T544 0H360Z" />
<glyph unicode="8" horiz-adv-x="1023" d="M514 -25Q391 -25 294 24T140 156T84 343Q84 428 118 498T208 620T327 705V713Q254 765 201 844T147 1026Q147 1128 194 1205T326 1325T524 1368Q695 1368 793 1270T891 1018Q891 951 863 888T794 773T712 691V682Q771
649 822 601T906 486T939 332Q939 235 889 154T743 24T514 -25ZM518 106Q639 106 704 172T769 338Q769 420 720 476T592 573T418 652Q342 601 293 524T244 359Q244 287 280 230T378 140T518 106ZM605 738Q670 796 704 867T738 1009Q738 1105 682 1171T520 1237Q423
1237 367 1179T310 1026Q310 950 350 897T458 807T605 738Z" />
<glyph unicode="9" horiz-adv-x="1023" d="M469 -25Q362 -25 286 11T146 110L237 221Q271 179 335 151T461 123Q552 123 617 175T719 345T757 662Q701 586 617 546T454 506Q284 506 183 620T81 936Q81 1062 136 1159T281 1313T477 1369Q609 1369 709 1301T866
1087T923 706Q923 451 866 290T705 52T469 -25ZM484 639Q546 639 617 674T753 801Q753 1011 679 1120T479 1230Q415 1230 363 1192T279 1088T248 936Q248 853 274 785T353 678T484 639Z" />
<glyph unicode=":" horiz-adv-x="518" d="M259 709Q207 709 170 746T133 841Q133 901 170 938T259 976Q312 976 348 939T385 841Q385 784 349 747T259 709ZM259 -25Q207 -25 170 12T133 107Q133 167 170 204T259 242Q312 242 348 205T385 107Q385 50 349 13T259 -25Z" />
<glyph unicode=";" horiz-adv-x="518" d="M388 -370L345 -269Q433 -231 483 -157T534 1Q528 0 523 0T513 -1Q462 -1 425 30T387 120Q387 177 425 209T516 242Q586 242 625 188T664 38Q664 -97 590 -207T388 -370ZM259 710Q207 710 170 747T133 842Q133 902 170
939T259 977Q312 977 348 940T385 842Q385 785 349 748T259 710Z" />
<glyph unicode="&lt;" horiz-adv-x="1023" d="M953 264L70 610V751L953 1096V943L252 684V676L953 418V264Z" />
<glyph unicode="=" horiz-adv-x="1023" d="M70 830V963H953V830H70ZM70 389V522H953V389H70Z" />
<glyph unicode="&gt;" horiz-adv-x="1023" d="M70 264L953 610V751L70 1096V943L771 684V676L70 418V264Z" />
<glyph unicode="?" horiz-adv-x="876" d="M327 411Q310 509 333 581T401 710T492 819T573 929T606 1062Q606 1154 558 1201T409 1248Q337 1248 280 1219T175 1136L74 1235Q139 1309 228 1353T427 1397Q592 1397 685 1317T779 1073Q779 982 745 915T663 793T569
683T497 563T483 411H327ZM411 -25Q358 -25 322 12T286 107Q286 167 322 204T411 242Q464 242 501 205T538 107Q538 50 501 13T411 -25Z" />
<glyph unicode="@" horiz-adv-x="1743" d="M829 -278Q678 -278 547 -231T316 -91T160 140T104 458Q104 665 172 832T360 1119T635 1303T963 1368Q1171 1368 1322 1282T1556 1043T1639 686Q1639 506 1577 385T1420 203T1231 141Q1148 141 1089 180T1018 296H1014Q964
236 902 197T765 157Q659 157 588 232T517 448Q517 532 544 616T624 770T749 882T911 924Q964 924 1005 901T1075 825H1079L1102 908H1219L1138 495Q1078 260 1248 260Q1313 260 1374 310T1477 454T1518 680Q1518 844 1454 974T1264 1179T949 1255Q811 1255 683
1199T452 1039T289 789T229 464Q229 264 309 124T528 -91T842 -165Q935 -165 1019 -139T1172 -73L1219 -174Q1130 -228 1033 -253T829 -278ZM799 277Q841 277 889 306T984 396L1042 718Q1014 764 985 783T914 802Q835 802 778 749T689 616T658 458Q658 359 698
318T799 277Z" />
<glyph unicode="A" horiz-adv-x="1107" d="M-1 0L452 1343H656L1109 0H918L793 404H308L182 0H-1ZM352 547H749L687 747Q652 858 620 970T555 1198H547Q516 1082 484 970T416 747L352 547Z" />
<glyph unicode="B" horiz-adv-x="1197" d="M177 0V1343H588Q726 1343 828 1312T988 1210T1045 1019Q1045 919 991 835T811 723V715Q958 700 1039 618T1120 396Q1120 262 1057 175T880 44T617 0H177ZM358 142H593Q761 142 852 206T944 406Q944 528 856 583T595
639H358V142ZM358 772H558Q725 772 796 831T868 1001Q868 1110 795 1155T569 1201H358V772Z" />
<glyph unicode="C" horiz-adv-x="1161" d="M687 -25Q518 -25 386 55T177 291T100 671Q100 893 177 1048T390 1286T697 1368Q818 1368 914 1319T1071 1204L970 1090Q917 1146 850 1178T699 1211Q511 1211 398 1071T285 677Q285 421 394 277T691 133Q786 133 859
170T997 278L1098 168Q1019 76 917 26T687 -25Z" />
<glyph unicode="D" horiz-adv-x="1256" d="M177 0V1343H527Q838 1343 995 1175T1153 679Q1153 353 993 177T529 0H177ZM358 147H508Q740 147 854 284T968 679Q968 937 858 1066T514 1196H358V147Z" />
<glyph unicode="E" horiz-adv-x="1072" d="M177 0V1343H956V1192H358V781H862V629H358V153H977V0H177Z" />
<glyph unicode="F" horiz-adv-x="1007" d="M177 0V1343H957V1192H358V747H866V596H358V0H177Z" />
<glyph unicode="G" horiz-adv-x="1257" d="M707 -25Q530 -25 393 54T178 288T100 669Q100 898 180 1053T401 1288T722 1368Q860 1368 955 1319T1110 1207L1008 1094Q957 1146 891 1178T724 1211Q524 1211 405 1073T286 673Q286 417 399 275T727 133Q796 133 860
153T964 210V552H689V700H1127V132Q1061 67 952 21T707 -25Z" />
<glyph unicode="H" horiz-adv-x="1328" d="M177 0V1343H358V784H972V1343H1151V0H972V628H358V0H177Z" />
<glyph unicode="I" horiz-adv-x="534" d="M177 0V1343H358V0H177Z" />
<glyph unicode="J" horiz-adv-x="976" d="M433 -25Q178 -25 57 192L184 282Q230 204 288 169T416 133Q522 133 574 195T626 409V1343H806V392Q806 276 768 181T648 31T433 -25Z" />
<glyph unicode="K" horiz-adv-x="1181" d="M177 0V1343H358V676H362L910 1343H1114L694 830L1179 0H978L583 689L358 421V0H177Z" />
<glyph unicode="L" horiz-adv-x="990" d="M177 0V1343H358V153H940V0H177Z" />
<glyph unicode="M" horiz-adv-x="1485" d="M169 0L185 1343H388L645 631L740 359H748L842 631L1096 1343H1297L1315 0H1145L1143 722Q1143 812 1147 923T1158 1124H1150L1043 824L790 134H690L436 824L329 1124H321Q328 1035 331 924T335 722V0H169Z" />
<glyph unicode="N" horiz-adv-x="1318" d="M177 0V1343H362L840 512L984 232H992Q986 334 978 446T969 664V1343H1140V0H954L478 833L334 1111H325Q332 1009 340 902T348 687V0H177Z" />
<glyph unicode="O" horiz-adv-x="1354" d="M676 -25Q502 -25 372 58T171 298T100 676Q100 897 171 1051T372 1286T676 1368Q850 1368 979 1287T1181 1051T1253 676Q1253 455 1181 298T980 58T676 -25ZM676 133Q857 133 962 277T1067 676Q1067 929 962 1070T676
1211Q493 1211 389 1070T285 676Q285 422 389 278T676 133Z" />
<glyph unicode="P" horiz-adv-x="1174" d="M177 0V1343H603Q757 1343 866 1304T1034 1177T1093 940Q1093 727 962 620T605 513H358V0H177ZM358 659H583Q761 659 838 729T915 940Q915 1083 837 1140T583 1198H358V659Z" />
<glyph unicode="Q" horiz-adv-x="1354" d="M1030 -337Q920 -337 829 -303T675 -197T585 -17Q440 4 330 92T158 329T97 678Q97 898 168 1052T369 1287T673 1368Q847 1368 977 1287T1179 1051T1251 678Q1251 481 1192 335T1027 100T779 -14Q794 -87 836 -124T936
-175T1049 -188Q1094 -188 1132 -181T1198 -167L1232 -306Q1202 -317 1147 -327T1030 -337ZM673 133Q794 133 881 199T1016 387T1063 678Q1063 929 959 1070T673 1211Q492 1211 388 1070T283 678Q283 425 387 279T673 133Z" />
<glyph unicode="R" horiz-adv-x="1186" d="M177 0V1343H615Q752 1343 855 1309T1017 1193T1076 966Q1076 801 999 711T785 585L1118 0H913L602 562H358V0H177ZM358 708H588Q743 708 819 768T896 966Q896 1100 821 1149T590 1198H358V708Z" />
<glyph unicode="S" horiz-adv-x="1087" d="M552 -25Q410 -25 292 25T84 167L190 292Q263 217 357 175T556 133Q687 133 758 191T830 344Q830 411 800 452T718 521T602 578L412 662Q349 688 287 733T183 848T142 1016Q142 1119 198 1198T351 1323T571 1368Q691
1368 793 1325T967 1207L872 1092Q811 1149 737 1180T570 1211Q460 1211 392 1163T323 1027Q323 964 356 922T439 852T543 801L733 719Q811 686 875 640T976 526T1014 358Q1014 252 959 165T800 27T552 -25Z" />
<glyph unicode="T" horiz-adv-x="1091" d="M456 0V1192H51V1343H1040V1192H636V0H456Z" />
<glyph unicode="U" horiz-adv-x="1315" d="M657 -25Q518 -25 408 30T235 211T171 553V1343H352V547Q352 388 392 298T502 171T657 133Q746 133 817 170T930 297T972 547V1343H1144V553Q1144 337 1081 211T907 30T657 -25Z" />
<glyph unicode="V" horiz-adv-x="1051" d="M422 0L-5 1343H185L398 625Q433 507 461 404T526 182H534Q571 300 599 403T661 625L873 1343H1057L632 0H422Z" />
<glyph unicode="W" horiz-adv-x="1604" d="M322 0L40 1343H226L363 620Q383 512 402 404T441 186H450Q471 295 495 403T543 620L726 1343H889L1072 620Q1096 514 1120 405T1167 186H1176Q1195 296 1213 404T1250 620L1388 1343H1562L1286 0H1068L870 795Q853 873
837 948T807 1100H798Q783 1023 767 948T732 795L537 0H322Z" />
<glyph unicode="X" horiz-adv-x="1049" d="M27 0L416 694L51 1343H250L429 1006Q454 960 477 914T533 810H542Q569 868 590 914T635 1006L808 1343H998L635 685L1024 0H825L633 356Q606 406 578 458T518 572H510Q481 511 456 459T404 356L215 0H27Z" />
<glyph unicode="Y" horiz-adv-x="973" d="M396 0V517L-8 1343H185L354 970Q386 896 417 824T483 677H491Q525 752 559 824T624 970L794 1343H980L576 517V0H396Z" />
<glyph unicode="Z" horiz-adv-x="1095" d="M85 0V108L786 1192H149V1343H1008V1237L308 153H1014V0H85Z" />
<glyph unicode="[" horiz-adv-x="627" d="M192 -311V1450H562V1347H326V-210H562V-311H192Z" />
<glyph unicode="\" horiz-adv-x="716" d="M566 -328L31 1454H158L695 -328H566Z" />
<glyph unicode="]" horiz-adv-x="627" d="M436 -311V1450H66V1347H302V-210H66V-311H436Z" />
<glyph unicode="^" horiz-adv-x="1023" d="M122 581L433 1372H590L901 581H747L616 934L516 1206H508L407 934L276 581H122Z" />
<glyph unicode="_" horiz-adv-x="1024" d="M10 -260V-143H1019V-260H10Z" />
<glyph unicode="`" horiz-adv-x="1112" d="M556 1174L324 1464H507L692 1174H556Z" />
<glyph unicode="a" horiz-adv-x="1052" d="M419 -25Q286 -25 202 51T118 262Q118 424 262 517T727 630Q727 704 710 759T648 844T523 875Q437 875 361 849T224 782L154 904Q225 950 329 986T553 1022Q738 1022 821 914T904 609V0H758L742 118H738Q667 59 594 17T419
-25ZM468 118Q539 118 599 151T727 247V516Q561 508 466 474T332 388T292 274Q292 192 341 155T468 118Z" />
<glyph unicode="b" horiz-adv-x="1140" d="M614 -25Q543 -25 469 7T330 99H323L308 0H166V1457H343V1062L338 885Q406 944 485 983T649 1022Q848 1022 945 886T1043 513Q1043 339 984 219T828 37T614 -25ZM581 125Q704 125 781 225T858 511Q858 677 802 775T604
873Q540 873 476 839T343 740V226Q407 170 469 148T581 125Z" />
<glyph unicode="c" horiz-adv-x="935" d="M560 -25Q427 -25 322 35T155 212T93 499Q93 672 159 788T334 963T573 1022Q671 1022 744 988T867 905L779 791Q736 829 687 852T581 875Q492 875 423 830T315 700T275 499Q275 326 358 225T576 123Q645 123 701 148T802
213L880 97Q812 38 731 7T560 -25Z" />
<glyph unicode="d" horiz-adv-x="1140" d="M507 -25Q321 -25 208 109T95 498Q95 665 154 782T312 960T526 1022Q613 1022 675 992T804 907L795 1077V1457H974V0H827L812 116H806Q748 59 671 17T507 -25ZM547 125Q615 125 675 158T795 258V771Q734 827 676 850T558
873Q478 873 415 828T315 700T278 500Q278 320 346 223T547 125Z" />
<glyph unicode="e" horiz-adv-x="1019" d="M572 -25Q439 -25 330 36T157 214T92 498Q92 665 154 782T319 960T541 1022Q741 1022 841 897T942 553Q942 526 940 502T935 458H268Q277 297 366 207T595 117Q664 117 724 135T839 189L901 74Q836 32 755 4T572 -25ZM266
575H786Q786 727 725 804T545 882Q438 882 359 804T266 575Z" />
<glyph unicode="f" horiz-adv-x="605" d="M196 0V853H60V987L196 996V1149Q196 1302 268 1392T492 1482Q540 1482 583 1472T661 1448L623 1313Q596 1325 567 1331T511 1338Q373 1338 373 1150V997H581V853H373V0H196Z" />
<glyph unicode="g" horiz-adv-x="1037" d="M503 -457Q304 -457 198 -388T91 -189Q91 -124 129 -60T237 49V57Q199 81 174 119T148 216Q148 278 183 322T257 393V401Q208 440 168 508T127 669Q127 785 178 863T315 982T505 1022Q551 1022 585 1015T647 997H995V865H793Q828
834 850 784T873 663Q873 497 768 408T505 318Q428 318 358 352Q332 329 314 307T296 244Q296 198 333 168T470 138H674Q851 138 931 76T1012 -111Q1012 -204 952 -283T777 -409T503 -457ZM530 -333Q626 -333 695 -306T801 -233T839 -137Q839 -69 790 -35T642 0H474Q444
0 410 3T344 15Q292 -21 270 -68T247 -165Q247 -243 318 -288T530 -333ZM505 436Q589 436 650 495T711 669Q711 784 654 838T505 893Q414 893 356 838T298 669Q298 556 359 496T505 436Z" />
<glyph unicode="h" horiz-adv-x="1118" d="M166 0V1457H343V1062L337 859Q406 926 485 974T667 1022Q827 1022 899 923T971 633V0H793V609Q793 747 751 807T610 868Q535 868 476 831T343 719V0H166Z" />
<glyph unicode="i" horiz-adv-x="509" d="M166 0V997H343V0H166ZM256 1198Q205 1198 170 1229T135 1310Q135 1361 170 1391T256 1422Q307 1422 342 1392T377 1310Q377 1261 342 1230T256 1198Z" />
<glyph unicode="j" horiz-adv-x="511" d="M66 -441Q19 -441 -18 -433T-83 -415L-47 -281Q-29 -287 -5 -292T46 -297Q118 -297 142 -247T167 -108V997H345V-108Q345 -210 318 -284T230 -400T66 -441ZM258 1198Q207 1198 172 1229T137 1310Q137 1361 172 1391T258
1422Q308 1422 343 1392T378 1310Q378 1261 343 1230T258 1198Z" />
<glyph unicode="k" horiz-adv-x="1022" d="M166 0V1457H340V481H347L764 997H960L624 596L1003 0H809L523 473L340 261V0H166Z" />
<glyph unicode="l" horiz-adv-x="527" d="M351 -25Q251 -25 209 36T166 209V1457H343V196Q343 156 357 140T391 123Q398 123 406 123T428 127L451 -7Q434 -15 410 -20T351 -25Z" />
<glyph unicode="m" horiz-adv-x="1702" d="M166 0V997H312L327 854H334Q399 925 476 973T644 1022Q761 1022 824 974T917 836Q995 919 1074 970T1245 1022Q1404 1022 1476 924T1549 634V0H1371V610Q1371 748 1330 808T1191 868Q1079 868 946 722V0H769V612Q769
750 727 809T588 868Q478 868 343 719V0H166Z" />
<glyph unicode="n" horiz-adv-x="1124" d="M166 0V997H312L327 854H334Q404 925 484 973T667 1022Q828 1022 899 924T971 634V0H793V610Q793 748 752 808T610 868Q535 868 476 831T343 719V0H166Z" />
<glyph unicode="o" horiz-adv-x="1112" d="M556 -25Q431 -25 326 36T158 214T94 498Q94 668 157 784T326 961T556 1022Q681 1022 786 962T955 785T1020 498Q1020 331 956 214T786 36T556 -25ZM556 123Q685 123 761 225T837 498Q837 670 761 772T556 875Q428 875
353 773T277 498Q277 328 352 226T556 123Z" />
<glyph unicode="p" horiz-adv-x="1140" d="M166 -417V997H312L327 883H334Q401 940 480 981T648 1022Q843 1022 943 885T1043 512Q1043 340 984 220T826 38T612 -25Q542 -25 474 5T339 90L343 -83V-417H166ZM579 125Q701 125 779 226T858 511Q858 677 800 775T602
873Q539 873 477 839T343 740V226Q409 170 469 148T579 125Z" />
<glyph unicode="q" horiz-adv-x="1129" d="M795 -417V-66L804 110Q744 55 670 15T508 -25Q317 -25 206 109T95 496Q95 661 155 778T313 959T527 1022Q615 1022 679 992T810 902H815L832 997H974V-417H795ZM549 125Q618 125 676 158T795 258V771Q734 827 678 850T560
873Q480 873 417 827T317 697T279 498Q279 317 348 221T549 125Z" />
<glyph unicode="r" horiz-adv-x="719" d="M166 0V997H312L327 817H334Q385 912 459 967T616 1022Q650 1022 675 1017T724 1001L691 846Q666 854 645 858T593 862Q531 862 462 811T343 636V0H166Z" />
<glyph unicode="s" horiz-adv-x="862" d="M429 -25Q324 -25 228 15T60 114L147 231Q212 179 279 146T435 113Q532 113 579 156T626 261Q626 312 593 345T507 403T400 447Q331 473 263 508T150 599T105 738Q105 860 197 941T452 1022Q546 1022 626 990T765 910L680
799Q629 837 576 860T453 884Q362 884 319 846T276 752Q276 706 307 675T389 620T495 576Q566 550 636 516T751 424T797 271Q797 150 703 63T429 -25Z" />
<glyph unicode="t" horiz-adv-x="699" d="M484 -25Q323 -25 260 68T196 312V853H48V987L204 997L225 1276H375V997H642V853H375V310Q375 218 408 169T526 120Q553 120 583 128T638 146L672 12Q630 -1 582 -13T484 -25Z" />
<glyph unicode="u" horiz-adv-x="1117" d="M458 -25Q295 -25 224 74T152 364V997H331V388Q331 250 372 190T514 129Q594 129 650 168T775 293V997H952V0H806L791 155H785Q716 74 641 25T458 -25Z" />
<glyph unicode="v" horiz-adv-x="965" d="M382 0L25 997H208L392 438Q414 364 437 290T483 143H491Q513 215 536 289T582 438L766 997H940L590 0H382Z" />
<glyph unicode="w" horiz-adv-x="1479" d="M325 0L49 997H230L375 429Q391 358 405 290T433 151H441Q458 221 473 290T508 429L659 997H829L982 429Q1001 358 1018 290T1052 151H1060Q1076 221 1090 289T1120 429L1262 997H1430L1165 0H950L810 526Q792 597 777
667T743 813H735Q719 738 703 666T668 523L531 0H325Z" />
<glyph unicode="x" horiz-adv-x="924" d="M29 0L353 521L53 997H246L376 782Q398 741 422 699T473 615H481Q502 657 524 699T569 782L687 997H872L571 502L895 0H702L560 227Q535 272 508 317T453 406H444Q420 363 395 318T346 227L215 0H29Z" />
<glyph unicode="y" horiz-adv-x="964" d="M189 -426Q154 -426 125 -421T71 -406L105 -265Q120 -270 141 -275T180 -280Q264 -280 318 -221T401 -72L424 0L25 997H208L406 454Q429 389 454 316T502 173H510Q532 241 552 314T592 454L765 997H940L567 -77Q531 -177
482 -256T362 -380T189 -426Z" />
<glyph unicode="z" horiz-adv-x="875" d="M65 0V95L582 853H122V997H807V902L289 145H823V0H65Z" />
<glyph unicode="{" horiz-adv-x="627" d="M466 -311Q345 -311 286 -254T227 -37Q227 75 236 163T246 354Q246 414 210 463T69 514V625Q173 627 209 676T246 782Q246 879 237 974T227 1177Q227 1334 286 1392T466 1450H562V1347H507Q427 1347 400 1306T372 1166Q372
1078 377 985T383 798Q383 697 355 645T259 573V565Q327 547 355 494T383 341Q383 238 378 152T372 -27Q372 -126 399 -168T507 -210H562V-311H466Z" />
<glyph unicode="|" horiz-adv-x="498" d="M187 -512V1536H312V-512H187Z" />
<glyph unicode="}" horiz-adv-x="627" d="M161 -311Q282 -311 341 -254T400 -37Q400 75 391 163T381 354Q381 414 417 463T558 514V625Q454 627 418 676T381 782Q381 879 390 974T400 1177Q400 1334 341 1392T161 1450H65V1347H120Q200 1347 227 1306T255 1166Q255
1078 250 985T244 798Q244 697 272 645T368 573V565Q300 547 272 494T244 341Q244 238 249 152T255 -27Q255 -126 228 -168T120 -210H65V-311H161Z" />
<glyph unicode="~" horiz-adv-x="1023" d="M694 524Q633 524 584 549T493 609T410 669T327 695Q280 695 243 668T172 570L73 642Q122 745 190 786T331 828Q392 828 440 803T531 743T613 683T696 657Q743 657 781 686T851 781L950 708Q898 611 833 568T694 524Z" />
<glyph unicode="&#xa0;" horiz-adv-x="416" />
<glyph unicode="&#xa1;" horiz-adv-x="600" d="M361 586L385 -177L390 -375H210L215 -177L240 586H361ZM300 1022Q352 1022 389 985T426 890Q426 830 389 793T300 755Q248 755 211 792T174 890Q174 947 211 984T300 1022Z" />
<glyph unicode="&#xa2;" horiz-adv-x="1023" d="M539 -68V143Q355 165 240 291T125 635Q125 777 180 880T329 1044T539 1122V1338H649V1128Q738 1123 803 1089T916 1010L830 898Q790 933 746 955T649 981V288Q712 293 764 320T858 382L935 269Q876 216 803 182T649
142V-68H539ZM539 298V970Q430 944 366 856T302 635Q302 502 364 413T539 298Z" />
<glyph unicode="&#xa3;" horiz-adv-x="1023" d="M109 0V109Q213 164 269 261T326 473Q326 501 323 528T312 582H112V694L245 701H280Q261 764 244 826T226 951Q226 1132 332 1231T612 1331Q721 1331 798 1294T932 1189L828 1084Q790 1132 743 1157T627 1182Q518
1182 460 1119T401 946Q401 883 416 824T448 701H750V582H475Q480 556 482 529T485 471Q485 367 454 296T360 162V153H954V0H109Z" />
<glyph unicode="&#xa4;" horiz-adv-x="1023" d="M147 208L52 304L183 437Q148 485 129 544T110 674Q110 813 183 913L52 1047L147 1144L286 1000Q383 1075 512 1075Q640 1075 737 1000L875 1144L970 1047L837 913Q873 865 893 805T913 674Q913 604 893 545T838
437L970 304L875 208L736 350Q689 313 631 294T512 274Q383 274 286 350L147 208ZM512 405Q577 405 631 438T717 533T749 674Q749 755 717 815T631 910T512 944Q447 944 393 910T307 816T274 674Q274 594 306 533T393 439T512 405Z" />
<glyph unicode="&#xa5;" horiz-adv-x="1023" d="M421 0V323H91V423H421V555H91V655H378L46 1306H231L387 961Q418 894 447 826T509 686H517Q551 758 580 826T641 961L796 1306H977L643 655H932V555H599V423H932V323H599V0H421Z" />
<glyph unicode="&#xa6;" horiz-adv-x="498" d="M187 -512V437H312V-512H187ZM187 599V1536H312V599H187Z" />
<glyph unicode="&#xa7;" horiz-adv-x="1023" d="M484 -134Q375 -134 283 -95T126 14L234 110Q285 61 344 32T484 3Q564 3 609 43T654 141Q654 198 614 236T509 303T373 364T237 437T132 542T91 700Q91 789 140 855T266 965Q236 997 219 1038T202 1133Q202 1205
237 1266T343 1365T516 1403Q615 1403 696 1368T835 1284L750 1170Q701 1210 646 1237T523 1264Q440 1264 402 1227T364 1139Q364 1085 405 1048T511 982T648 921T785 846T891 740T932 582Q932 486 885 424T758 316Q786 283 802 243T818 150Q818 69 776 5T658 -97T484
-134ZM657 398Q715 426 745 464T776 568Q776 636 737 681T636 758T502 820T368 886Q312 854 280 814T247 712Q247 645 286 601T389 526T523 465T657 398Z" />
<glyph unicode="&#xa8;" horiz-adv-x="1112" d="M378 1202Q334 1202 305 1231T275 1306Q275 1350 304 1379T378 1408Q423 1408 452 1379T481 1306Q481 1261 452 1232T378 1202ZM735 1202Q690 1202 662 1231T633 1306Q633 1350 661 1379T735 1408Q780 1408 809
1379T838 1306Q838 1261 809 1232T735 1202Z" />
<glyph unicode="&#xa9;" horiz-adv-x="1526" d="M766 -42Q628 -42 505 7T288 148T139 371T84 663Q84 824 138 952T287 1172T505 1311T766 1360Q903 1360 1026 1312T1243 1172T1392 953T1447 663Q1447 501 1393 371T1244 149T1026 7T766 -42ZM775 257Q671 257 586
305T451 445T401 662Q401 781 454 868T594 1002T780 1049Q867 1049 927 1016T1037 933L963 849Q922 889 881 910T788 932Q677 932 610 856T542 662Q542 529 607 452T781 374Q844 374 893 399T987 463L1051 373Q994 324 930 291T775 257ZM765 49Q924 49 1056 125T1267
340T1346 663Q1346 846 1267 982T1056 1195T765 1271Q607 1271 475 1195T264 983T185 663Q185 479 264 341T475 126T765 49Z" />
<glyph unicode="&#xaa;" horiz-adv-x="709" d="M278 516Q187 516 131 570T75 710Q75 818 172 876T480 954Q479 1018 453 1059T356 1101Q303 1101 248 1079T151 1031L101 1122Q153 1154 224 1182T376 1210Q499 1210 556 1138T613 933V532H507L492 608H483Q443 571
392 544T278 516ZM317 622Q396 622 480 702V871Q327 854 267 816T206 721Q206 670 236 646T317 622Z" />
<glyph unicode="&#xab;" horiz-adv-x="895" d="M372 134L93 450V583L372 899L447 836L207 516L447 194L372 134ZM710 134L431 450V583L710 899L785 836L545 516L785 194L710 134Z" />
<glyph unicode="&#xac;" horiz-adv-x="1023" d="M812 212V609H70V742H953V212H812Z" />
<glyph unicode="&#xad;" horiz-adv-x="640" d="M85 447V582H558V447H85Z" />
<glyph unicode="&#xae;" horiz-adv-x="873" d="M436 653Q330 653 242 704T102 846T49 1057Q49 1177 101 1267T242 1409T436 1461Q542 1461 630 1410T770 1268T823 1057Q823 937 771 846T630 704T436 653ZM436 730Q522 730 590 771T699 886T739 1057Q739 1153 699
1227T591 1343T436 1385Q350 1385 281 1343T173 1227T133 1057Q133 960 172 886T281 771T436 730ZM286 854V1269H444Q509 1269 556 1239T604 1136Q604 1099 584 1068T528 1023L622 854H526L454 996H373V854H286ZM373 1063H425Q466 1063 489 1080T512 1132Q512 1162
493 1180T429 1198H373V1063Z" />
<glyph unicode="&#xaf;" horiz-adv-x="1112" d="M304 1230V1352H810V1230H304Z" />
<glyph unicode="&#xb0;" horiz-adv-x="683" d="M342 875Q273 875 214 907T120 999T84 1137Q84 1219 119 1278T214 1370T342 1403Q412 1403 471 1371T566 1279T602 1137Q602 1058 566 999T471 908T342 875ZM342 972Q410 972 452 1019T495 1137Q495 1211 453 1258T342
1305Q276 1305 233 1258T190 1137Q190 1066 233 1019T342 972Z" />
<glyph unicode="&#xb1;" horiz-adv-x="1023" d="M441 265V622H70V755H441V1141H581V755H953V622H581V265H441ZM70 0V133H953V0H70Z" />
<glyph unicode="&#xb2;" horiz-adv-x="753" d="M106 901V980Q228 1090 312 1171T439 1319T482 1444Q482 1521 442 1565T332 1609Q282 1609 239 1576T162 1494L80 1569Q127 1639 197 1681T350 1724Q470 1724 543 1658T617 1465Q617 1390 579 1320T475 1177T326
1019H657V901H106Z" />
<glyph unicode="&#xb3;" horiz-adv-x="753" d="M370 877Q273 877 195 921T71 1033L162 1103Q199 1048 250 1017T362 986Q426 986 472 1022T519 1125Q519 1194 455 1229T275 1265V1351Q376 1351 432 1391T489 1492Q489 1548 450 1582T346 1616Q302 1616 261 1589T186
1521L104 1593Q157 1654 220 1689T368 1724Q472 1724 548 1668T625 1509Q625 1439 586 1391T486 1314Q553 1296 604 1247T656 1117Q656 1044 617 990T513 907T370 877Z" />
<glyph unicode="&#xb4;" horiz-adv-x="1112" d="M391 1174L575 1464H759L526 1174H391Z" />
<glyph unicode="&#xb5;" horiz-adv-x="1130" d="M166 -410V997H343V390Q343 253 387 191T527 129Q603 129 661 168T788 293V997H965V0H818L803 155H798Q742 75 672 30T516 -16Q458 -16 413 1T333 69L343 -115V-410H166Z" />
<glyph unicode="&#xb6;" horiz-adv-x="1158" d="M601 459Q453 459 336 506T152 652T84 905Q84 1067 149 1163T326 1301T579 1343H652V459H601ZM780 -164V1343H961V-164H780Z" />
<glyph unicode="&#xb7;" horiz-adv-x="518" d="M259 526Q207 526 170 563T133 658Q133 718 170 755T259 793Q312 793 348 756T385 658Q385 601 349 564T259 526Z" />
<glyph unicode="&#xb8;" horiz-adv-x="1112" d="M410 -437L393 -350Q473 -340 524 -317T575 -252Q575 -214 542 -192T444 -154L526 6H641L589 -101Q639 -118 675 -151T711 -247Q711 -307 668 -346T557 -408T410 -437Z" />
<glyph unicode="&#xb9;" horiz-adv-x="753" d="M351 901V1529H177V1618Q246 1630 291 1649T378 1700H489V901H351Z" />
<glyph unicode="&#xba;" horiz-adv-x="749" d="M374 516Q289 516 218 557T103 676T60 862Q60 973 103 1050T217 1169T374 1210Q458 1210 529 1169T643 1051T686 862Q686 754 643 677T529 558T374 516ZM374 626Q456 626 503 692T550 862Q550 971 503 1036T374 1101Q291
1101 244 1036T196 862Q196 758 243 692T374 626Z" />
<glyph unicode="&#xbb;" horiz-adv-x="892" d="M185 134L464 450V583L185 899L110 836L350 516L110 194L185 134ZM522 134L801 450V583L522 899L447 836L687 516L447 194L522 134Z" />
<glyph unicode="&#xbc;" horiz-adv-x="1654" d="M336 545V1172H162V1261Q231 1273 276 1292T363 1343H474V545H336ZM421 -25L1085 1368H1204L539 -25H421ZM1351 0V211H986V282L1318 799H1475V309H1594V211H1475V0H1351ZM1128 309H1351V448L1360 672H1352L1251
507L1128 309Z" />
<glyph unicode="&#xbd;" horiz-adv-x="1669" d="M336 545V1172H162V1261Q231 1273 276 1292T363 1343H474V545H336ZM421 -25L1085 1368H1204L539 -25H421ZM1014 0V79Q1137 189 1220 270T1347 418T1391 543Q1391 620 1351 664T1240 708Q1190 708 1147 675T1070
593L989 668Q1036 738 1106 780T1258 823Q1379 823 1452 757T1526 564Q1526 489 1488 419T1384 276T1235 118H1566V0H1014Z" />
<glyph unicode="&#xbe;" horiz-adv-x="1714" d="M385 520Q288 520 210 565T86 678L177 746Q214 692 265 661T377 629Q441 629 487 666T534 769Q534 837 470 872T290 908V995Q391 995 447 1035T504 1135Q504 1192 465 1226T361 1260Q317 1260 276 1233T201 1164L119
1236Q172 1297 235 1332T383 1368Q487 1368 563 1311T640 1152Q640 1082 601 1034T501 958Q568 940 619 890T671 760Q671 686 632 632T528 549T385 520ZM481 -25L1145 1368H1264L599 -25H481ZM1411 0V211H1046V282L1378 799H1535V309H1654V211H1535V0H1411ZM1188
309H1411V448L1420 672H1412L1311 507L1188 309Z" />
<glyph unicode="&#xbf;" horiz-adv-x="876" d="M551 586Q568 488 545 416T477 287T386 178T305 68T272 -65Q272 -157 320 -204T469 -251Q541 -251 598 -222T703 -139L804 -238Q739 -312 650 -356T451 -400Q286 -400 193 -320T99 -76Q99 15 133 82T215 204T309
314T381 434T395 586H551ZM467 1022Q520 1022 556 985T592 890Q592 830 556 793T467 755Q414 755 377 792T340 890Q340 947 377 984T467 1022Z" />
<glyph unicode="&#xc0;" horiz-adv-x="1107" d="M-1 0L452 1343H656L1109 0H918L793 404H308L182 0H-1ZM352 547H749L687 747Q652 858 620 970T555 1198H547Q516 1082 484 970T416 747L352 547ZM490 1475L257 1706H462L641 1475H490Z" />
<glyph unicode="&#xc1;" horiz-adv-x="1107" d="M-1 0L452 1343H656L1109 0H918L793 404H308L182 0H-1ZM352 547H749L687 747Q652 858 620 970T555 1198H547Q516 1082 484 970T416 747L352 547ZM468 1476L648 1706H849L616 1476H468Z" />
<glyph unicode="&#xc2;" horiz-adv-x="1107" d="M-1 0L452 1343H656L1109 0H918L793 404H308L182 0H-1ZM352 547H749L687 747Q652 858 620 970T555 1198H547Q516 1082 484 970T416 747L352 547ZM268 1475L465 1706H642L839 1475H692L558 1613H550L415 1475H268Z" />
<glyph unicode="&#xc3;" horiz-adv-x="1107" d="M-1 0L452 1343H656L1109 0H918L793 404H308L182 0H-1ZM352 547H749L687 747Q652 858 620 970T555 1198H547Q516 1082 484 970T416 747L352 547ZM254 1455Q263 1554 310 1617T431 1681Q486 1681 526 1655T602 1602T675
1575Q704 1575 726 1602T757 1681H854Q845 1583 799 1519T678 1455Q624 1455 583 1482T507 1535T434 1561Q405 1561 383 1535T352 1455H254Z" />
<glyph unicode="&#xc4;" horiz-adv-x="1107" d="M-1 0L452 1343H656L1109 0H918L793 404H308L182 0H-1ZM352 547H749L687 747Q652 858 620 970T555 1198H547Q516 1082 484 970T416 747L352 547ZM733 1483Q688 1483 658 1512T628 1587Q628 1634 658 1662T733 1691Q779
1691 808 1663T837 1587Q837 1542 808 1513T733 1483ZM375 1483Q328 1483 299 1512T270 1587Q270 1634 299 1662T375 1691Q420 1691 450 1663T480 1587Q480 1542 450 1513T375 1483Z" />
<glyph unicode="&#xc5;" horiz-adv-x="1107" d="M-1 0L452 1343H656L1109 0H918L793 404H308L182 0H-1ZM352 547H749L687 747Q652 858 620 970T555 1198H547Q516 1082 484 970T416 747L352 547ZM554 1432Q468 1432 414 1481T359 1614Q359 1696 413 1746T554 1796Q638
1796 693 1746T748 1614Q748 1530 693 1481T554 1432ZM554 1509Q592 1509 620 1536T648 1614Q648 1661 620 1688T554 1716Q513 1716 485 1689T457 1614Q457 1564 485 1537T554 1509Z" />
<glyph unicode="&#xc6;" horiz-adv-x="1677" d="M9 0L709 1343H1562V1192H995V781H1468V629H995V153H1582V0H815V386H394L196 0H9ZM467 529H815V1202H807Q754 1094 699 985T589 767L467 529Z" />
<glyph unicode="&#xc7;" horiz-adv-x="1161" d="M687 -25Q518 -25 386 55T177 291T100 671Q100 893 177 1048T390 1286T697 1368Q818 1368 914 1319T1071 1204L970 1090Q917 1146 850 1178T699 1211Q511 1211 398 1071T285 677Q285 421 394 277T691 133Q786 133
859 170T997 278L1098 168Q1019 76 917 26T687 -25ZM505 -437L487 -350Q568 -340 618 -317T669 -252Q669 -214 636 -192T539 -154L621 6H736L684 -101Q735 -118 770 -151T805 -247Q805 -307 763 -346T652 -408T505 -437Z" />
<glyph unicode="&#xc8;" horiz-adv-x="1072" d="M177 0V1343H956V1192H358V781H862V629H358V153H977V0H177ZM502 1475L269 1706H474L653 1475H502Z" />
<glyph unicode="&#xc9;" horiz-adv-x="1072" d="M177 0V1343H956V1192H358V781H862V629H358V153H977V0H177ZM481 1476L661 1706H862L629 1476H481Z" />
<glyph unicode="&#xca;" horiz-adv-x="1072" d="M177 0V1343H956V1192H358V781H862V629H358V153H977V0H177ZM281 1475L478 1706H655L852 1475H705L571 1613H563L428 1475H281Z" />
<glyph unicode="&#xcb;" horiz-adv-x="1072" d="M177 0V1343H956V1192H358V781H862V629H358V153H977V0H177ZM746 1483Q701 1483 671 1512T641 1587Q641 1634 671 1662T746 1691Q792 1691 821 1663T850 1587Q850 1542 821 1513T746 1483ZM388 1483Q341 1483 312
1512T283 1587Q283 1634 312 1662T388 1691Q433 1691 463 1663T493 1587Q493 1542 463 1513T388 1483Z" />
<glyph unicode="&#xcc;" horiz-adv-x="534" d="M177 0V1343H358V0H177ZM460 1475L227 1706H432L611 1475H460Z" />
<glyph unicode="&#xcd;" horiz-adv-x="534" d="M177 0V1343H358V0H177ZM182 1476L362 1706H563L330 1476H182Z" />
<glyph unicode="&#xce;" horiz-adv-x="534" d="M177 0V1343H358V0H177ZM238 1475L435 1706H612L809 1475H662L528 1613H520L385 1475H238Z" />
<glyph unicode="&#xcf;" horiz-adv-x="534" d="M177 0V1343H358V0H177ZM703 1483Q658 1483 628 1512T598 1587Q598 1634 628 1662T703 1691Q749 1691 778 1663T807 1587Q807 1542 778 1513T703 1483ZM345 1483Q298 1483 269 1512T240 1587Q240 1634 269 1662T345
1691Q390 1691 420 1663T450 1587Q450 1542 420 1513T345 1483Z" />
<glyph unicode="&#xd0;" horiz-adv-x="1297" d="M218 0V654H61V746L218 755V1343H557Q867 1343 1031 1171T1195 678Q1195 355 1032 178T566 0H218ZM398 147H544Q775 147 892 285T1009 678Q1009 930 892 1063T544 1196H398V755H705V654H398V147Z" />
<glyph unicode="&#xd1;" horiz-adv-x="1318" d="M177 0V1343H362L840 512L984 232H992Q986 334 978 446T969 664V1343H1140V0H954L478 833L334 1111H325Q332 1009 340 902T348 687V0H177ZM359 1455Q368 1554 415 1617T536 1681Q591 1681 631 1655T707 1602T780
1575Q809 1575 831 1602T862 1681H959Q950 1583 904 1519T783 1455Q729 1455 688 1482T612 1535T539 1561Q510 1561 488 1535T457 1455H359Z" />
<glyph unicode="&#xd2;" horiz-adv-x="1354" d="M676 -25Q502 -25 372 58T171 298T100 676Q100 897 171 1051T372 1286T676 1368Q850 1368 979 1287T1181 1051T1253 676Q1253 455 1181 298T980 58T676 -25ZM676 133Q857 133 962 277T1067 676Q1067 929 962 1070T676
1211Q493 1211 389 1070T285 676Q285 422 389 278T676 133ZM613 1475L380 1706H585L764 1475H613Z" />
<glyph unicode="&#xd3;" horiz-adv-x="1354" d="M676 -25Q502 -25 372 58T171 298T100 676Q100 897 171 1051T372 1286T676 1368Q850 1368 979 1287T1181 1051T1253 676Q1253 455 1181 298T980 58T676 -25ZM676 133Q857 133 962 277T1067 676Q1067 929 962 1070T676
1211Q493 1211 389 1070T285 676Q285 422 389 278T676 133ZM592 1476L772 1706H973L740 1476H592Z" />
<glyph unicode="&#xd4;" horiz-adv-x="1354" d="M676 -25Q502 -25 372 58T171 298T100 676Q100 897 171 1051T372 1286T676 1368Q850 1368 979 1287T1181 1051T1253 676Q1253 455 1181 298T980 58T676 -25ZM676 133Q857 133 962 277T1067 676Q1067 929 962 1070T676
1211Q493 1211 389 1070T285 676Q285 422 389 278T676 133ZM392 1475L589 1706H766L963 1475H816L682 1613H674L539 1475H392Z" />
<glyph unicode="&#xd5;" horiz-adv-x="1354" d="M676 -25Q502 -25 372 58T171 298T100 676Q100 897 171 1051T372 1286T676 1368Q850 1368 979 1287T1181 1051T1253 676Q1253 455 1181 298T980 58T676 -25ZM676 133Q857 133 962 277T1067 676Q1067 929 962 1070T676
1211Q493 1211 389 1070T285 676Q285 422 389 278T676 133ZM377 1455Q386 1554 433 1617T554 1681Q609 1681 649 1655T725 1602T798 1575Q827 1575 849 1602T880 1681H977Q968 1583 922 1519T801 1455Q747 1455 706 1482T630 1535T557 1561Q528 1561 506 1535T475
1455H377Z" />
<glyph unicode="&#xd6;" horiz-adv-x="1354" d="M676 -25Q502 -25 372 58T171 298T100 676Q100 897 171 1051T372 1286T676 1368Q850 1368 979 1287T1181 1051T1253 676Q1253 455 1181 298T980 58T676 -25ZM676 133Q857 133 962 277T1067 676Q1067 929 962 1070T676
1211Q493 1211 389 1070T285 676Q285 422 389 278T676 133ZM857 1483Q812 1483 782 1512T752 1587Q752 1634 782 1662T857 1691Q903 1691 932 1663T961 1587Q961 1542 932 1513T857 1483ZM499 1483Q452 1483 423 1512T394 1587Q394 1634 423 1662T499 1691Q544
1691 574 1663T604 1587Q604 1542 574 1513T499 1483Z" />
<glyph unicode="&#xd7;" horiz-adv-x="1023" d="M197 256L102 353L418 676L102 998L197 1094L512 770L826 1094L920 998L605 676L920 353L826 256L512 581L197 256Z" />
<glyph unicode="&#xd8;" horiz-adv-x="1354" d="M196 -62L95 14L237 197Q172 287 136 408T100 678Q100 893 173 1047T377 1285T677 1368Q891 1368 1040 1237L1169 1406L1270 1331L1124 1142Q1186 1056 1219 939T1253 678Q1253 462 1180 304T977 61T677 -25Q471
-25 323 103L196 -62ZM677 133Q795 133 882 200T1018 389T1067 678Q1067 862 1004 989L429 238Q477 188 540 161T677 133ZM355 348L933 1100Q832 1211 677 1211Q559 1211 471 1147T334 963T285 678Q285 482 355 348Z" />
<glyph unicode="&#xd9;" horiz-adv-x="1315" d="M657 -25Q518 -25 408 30T235 211T171 553V1343H352V547Q352 388 392 298T502 171T657 133Q746 133 817 170T930 297T972 547V1343H1144V553Q1144 337 1081 211T907 30T657 -25ZM594 1475L361 1706H566L745 1475H594Z" />
<glyph unicode="&#xda;" horiz-adv-x="1315" d="M657 -25Q518 -25 408 30T235 211T171 553V1343H352V547Q352 388 392 298T502 171T657 133Q746 133 817 170T930 297T972 547V1343H1144V553Q1144 337 1081 211T907 30T657 -25ZM572 1476L752 1706H953L720 1476H572Z" />
<glyph unicode="&#xdb;" horiz-adv-x="1315" d="M657 -25Q518 -25 408 30T235 211T171 553V1343H352V547Q352 388 392 298T502 171T657 133Q746 133 817 170T930 297T972 547V1343H1144V553Q1144 337 1081 211T907 30T657 -25ZM372 1475L569 1706H746L943 1475H796L662
1613H654L519 1475H372Z" />
<glyph unicode="&#xdc;" horiz-adv-x="1315" d="M657 -25Q518 -25 408 30T235 211T171 553V1343H352V547Q352 388 392 298T502 171T657 133Q746 133 817 170T930 297T972 547V1343H1144V553Q1144 337 1081 211T907 30T657 -25ZM837 1483Q792 1483 762 1512T732
1587Q732 1634 762 1662T837 1691Q883 1691 912 1663T941 1587Q941 1542 912 1513T837 1483ZM479 1483Q432 1483 403 1512T374 1587Q374 1634 403 1662T479 1691Q524 1691 554 1663T584 1587Q584 1542 554 1513T479 1483Z" />
<glyph unicode="&#xdd;" horiz-adv-x="973" d="M396 0V517L-8 1343H185L354 970Q386 896 417 824T483 677H491Q525 752 559 824T624 970L794 1343H980L576 517V0H396ZM401 1476L581 1706H782L549 1476H401Z" />
<glyph unicode="&#xde;" horiz-adv-x="1200" d="M181 0V1343H360V1120H598Q747 1120 859 1082T1033 957T1096 722Q1096 579 1033 486T858 349T598 304H360V0H181ZM360 450H577Q749 450 833 515T917 722Q917 864 833 918T577 973H360V450Z" />
<glyph unicode="&#xdf;" horiz-adv-x="1188" d="M798 -25Q713 -25 643 2T507 76L577 200Q631 156 683 135T793 113Q875 113 918 161T962 272Q962 331 933 369T859 435T762 489T665 547T590 626T561 744Q561 813 587 862T649 955T712 1045T739 1157Q739 1234 697
1283T571 1333Q463 1333 403 1255T343 1020V0H166V1051Q166 1244 271 1361T573 1478Q683 1478 758 1436T873 1326T913 1176Q913 1099 885 1045T821 946T757 860T729 765Q729 716 758 684T832 627T929 576T1025 512T1100 420T1129 282Q1129 153 1041 64T798 -25Z"
/>
<glyph unicode="&#xe0;" horiz-adv-x="1052" d="M419 -25Q286 -25 202 51T118 262Q118 424 262 517T727 630Q727 704 710 759T648 844T523 875Q437 875 361 849T224 782L154 904Q225 950 329 986T553 1022Q738 1022 821 914T904 609V0H758L742 118H738Q667 59
594 17T419 -25ZM468 118Q539 118 599 151T727 247V516Q561 508 466 474T332 388T292 274Q292 192 341 155T468 118ZM477 1174L244 1464H428L613 1174H477Z" />
<glyph unicode="&#xe1;" horiz-adv-x="1052" d="M419 -25Q286 -25 202 51T118 262Q118 424 262 517T727 630Q727 704 710 759T648 844T523 875Q437 875 361 849T224 782L154 904Q225 950 329 986T553 1022Q738 1022 821 914T904 609V0H758L742 118H738Q667 59
594 17T419 -25ZM468 118Q539 118 599 151T727 247V516Q561 508 466 474T332 388T292 274Q292 192 341 155T468 118ZM422 1174L607 1464H791L558 1174H422Z" />
<glyph unicode="&#xe2;" horiz-adv-x="1052" d="M419 -25Q286 -25 202 51T118 262Q118 424 262 517T727 630Q727 704 710 759T648 844T523 875Q437 875 361 849T224 782L154 904Q225 950 329 986T553 1022Q738 1022 821 914T904 609V0H758L742 118H738Q667 59
594 17T419 -25ZM468 118Q539 118 599 151T727 247V516Q561 508 466 474T332 388T292 274Q292 192 341 155T468 118ZM515 1174L708 1464H855L1049 1174H921L785 1359H777L642 1174H515Z" />
<glyph unicode="&#xe3;" horiz-adv-x="1052" d="M419 -25Q286 -25 202 51T118 262Q118 424 262 517T727 630Q727 704 710 759T648 844T523 875Q437 875 361 849T224 782L154 904Q225 950 329 986T553 1022Q738 1022 821 914T904 609V0H758L742 118H738Q667 59
594 17T419 -25ZM468 118Q539 118 599 151T727 247V516Q561 508 466 474T332 388T292 274Q292 192 341 155T468 118ZM237 1186Q246 1281 288 1343T407 1406Q459 1406 499 1380T574 1329T641 1303Q698 1303 716 1406H815Q806 1311 764 1249T646 1186Q593 1186 554
1211T480 1263T411 1289Q355 1289 337 1186H237Z" />
<glyph unicode="&#xe4;" horiz-adv-x="1052" d="M419 -25Q286 -25 202 51T118 262Q118 424 262 517T727 630Q727 704 710 759T648 844T523 875Q437 875 361 849T224 782L154 904Q225 950 329 986T553 1022Q738 1022 821 914T904 609V0H758L742 118H738Q667 59
594 17T419 -25ZM468 118Q539 118 599 151T727 247V516Q561 508 466 474T332 388T292 274Q292 192 341 155T468 118ZM604 1122Q560 1122 531 1151T501 1226Q501 1270 530 1299T604 1328Q649 1328 678 1299T707 1226Q707 1181 678 1152T604 1122ZM961 1122Q916 1122
888 1151T859 1226Q859 1270 887 1299T961 1328Q1006 1328 1035 1299T1064 1226Q1064 1181 1035 1152T961 1122Z" />
<glyph unicode="&#xe5;" horiz-adv-x="1052" d="M419 -25Q286 -25 202 51T118 262Q118 424 262 517T727 630Q727 704 710 759T648 844T523 875Q437 875 361 849T224 782L154 904Q225 950 329 986T553 1022Q738 1022 821 914T904 609V0H758L742 118H738Q667 59
594 17T419 -25ZM468 118Q539 118 599 151T727 247V516Q561 508 466 474T332 388T292 274Q292 192 341 155T468 118ZM781 1112Q697 1112 643 1164T588 1302Q588 1388 642 1440T781 1492Q867 1492 921 1440T976 1302Q976 1217 922 1165T781 1112ZM781 1190Q822 1190
850 1220T878 1302Q878 1353 850 1383T781 1414Q740 1414 712 1383T684 1302Q684 1251 712 1221T781 1190Z" />
<glyph unicode="&#xe6;" horiz-adv-x="1608" d="M411 -25Q285 -25 202 50T118 260Q118 423 263 513T717 629Q717 691 701 747T641 839T517 875Q438 875 364 848T230 780L160 903Q231 948 330 985T540 1022Q657 1022 724 966T824 815Q883 910 967 966T1162 1022Q1285
1022 1367 964T1490 799T1531 551Q1531 523 1529 498T1524 455H883Q888 353 929 278T1037 162T1188 120Q1259 120 1316 143T1428 202L1492 80Q1426 37 1346 6T1166 -25Q1042 -25 958 30T815 160Q714 70 611 23T411 -25ZM462 118Q530 118 609 156T755 266Q739 304
729 357T717 466L716 513Q487 487 390 427T292 273Q292 191 340 155T462 118ZM883 572H1375Q1375 721 1322 801T1157 882Q1047 882 972 799T883 572Z" />
<glyph unicode="&#xe7;" horiz-adv-x="935" d="M560 -25Q427 -25 322 35T155 212T93 499Q93 672 159 788T334 963T573 1022Q671 1022 744 988T867 905L779 791Q736 829 687 852T581 875Q492 875 423 830T315 700T275 499Q275 326 358 225T576 123Q645 123 701
148T802 213L880 97Q812 38 731 7T560 -25ZM327 -437L309 -350Q390 -340 440 -317T491 -252Q491 -214 458 -192T361 -154L443 6H558L506 -101Q557 -118 592 -151T627 -247Q627 -307 585 -346T474 -408T327 -437Z" />
<glyph unicode="&#xe8;" horiz-adv-x="1019" d="M572 -25Q439 -25 330 36T157 214T92 498Q92 665 154 782T319 960T541 1022Q741 1022 841 897T942 553Q942 526 940 502T935 458H268Q277 297 366 207T595 117Q664 117 724 135T839 189L901 74Q836 32 755 4T572
-25ZM266 575H786Q786 727 725 804T545 882Q438 882 359 804T266 575ZM481 1174L248 1464H432L617 1174H481Z" />
<glyph unicode="&#xe9;" horiz-adv-x="1019" d="M572 -25Q439 -25 330 36T157 214T92 498Q92 665 154 782T319 960T541 1022Q741 1022 841 897T942 553Q942 526 940 502T935 458H268Q277 297 366 207T595 117Q664 117 724 135T839 189L901 74Q836 32 755 4T572
-25ZM266 575H786Q786 727 725 804T545 882Q438 882 359 804T266 575ZM426 1174L611 1464H795L562 1174H426Z" />
<glyph unicode="&#xea;" horiz-adv-x="1019" d="M572 -25Q439 -25 330 36T157 214T92 498Q92 665 154 782T319 960T541 1022Q741 1022 841 897T942 553Q942 526 940 502T935 458H268Q277 297 366 207T595 117Q664 117 724 135T839 189L901 74Q836 32 755 4T572
-25ZM266 575H786Q786 727 725 804T545 882Q438 882 359 804T266 575ZM519 1174L712 1464H859L1053 1174H925L789 1359H781L646 1174H519Z" />
<glyph unicode="&#xeb;" horiz-adv-x="1019" d="M572 -25Q439 -25 330 36T157 214T92 498Q92 665 154 782T319 960T541 1022Q741 1022 841 897T942 553Q942 526 940 502T935 458H268Q277 297 366 207T595 117Q664 117 724 135T839 189L901 74Q836 32 755 4T572
-25ZM266 575H786Q786 727 725 804T545 882Q438 882 359 804T266 575ZM608 1122Q564 1122 535 1151T505 1226Q505 1270 534 1299T608 1328Q653 1328 682 1299T711 1226Q711 1181 682 1152T608 1122ZM965 1122Q920 1122 892 1151T863 1226Q863 1270 891 1299T965
1328Q1010 1328 1039 1299T1068 1226Q1068 1181 1039 1152T965 1122Z" />
<glyph unicode="&#xec;" horiz-adv-x="509" d="M166 0V997H343V0H166ZM461 1174L228 1464H412L597 1174H461Z" />
<glyph unicode="&#xed;" horiz-adv-x="509" d="M166 0V997H343V0H166ZM150 1174L335 1464H519L286 1174H150Z" />
<glyph unicode="&#xee;" horiz-adv-x="509" d="M166 0V997H343V0H166ZM-12 1174L181 1464H328L522 1174H394L258 1359H250L115 1174H-12Z" />
<glyph unicode="&#xef;" horiz-adv-x="509" d="M166 0V997H343V0H166ZM76 1122Q32 1122 3 1151T-27 1226Q-27 1270 2 1299T76 1328Q121 1328 150 1299T179 1226Q179 1181 150 1152T76 1122ZM433 1122Q388 1122 360 1151T331 1226Q331 1270 359 1299T433 1328Q478
1328 507 1299T536 1226Q536 1181 507 1152T433 1122Z" />
<glyph unicode="&#xf0;" horiz-adv-x="1118" d="M552 -25Q435 -25 334 33T171 200T108 457Q108 596 164 699T315 859T528 916Q606 916 676 885T798 787Q770 909 715 1002T584 1170L294 1021L244 1108L501 1240Q449 1280 393 1316T276 1385L357 1497Q431 1457 502
1411T640 1311L931 1461L981 1373L719 1239Q841 1115 919 943T997 528Q997 364 942 240T786 45T552 -25ZM556 123Q646 123 706 173T796 312T826 521Q826 550 825 578T822 632Q757 721 690 750T556 779Q467 779 404 737T308 623T274 457Q274 356 313 281T416 164T556
123Z" />
<glyph unicode="&#xf1;" horiz-adv-x="1124" d="M166 0V997H312L327 854H334Q404 925 484 973T667 1022Q828 1022 899 924T971 634V0H793V610Q793 748 752 808T610 868Q535 868 476 831T343 719V0H166ZM273 1186Q282 1281 324 1343T443 1406Q495 1406 535 1380T610
1329T677 1303Q734 1303 752 1406H851Q842 1311 800 1249T682 1186Q629 1186 590 1211T516 1263T447 1289Q391 1289 373 1186H273Z" />
<glyph unicode="&#xf2;" horiz-adv-x="1112" d="M556 -25Q431 -25 326 36T158 214T94 498Q94 668 157 784T326 961T556 1022Q681 1022 786 962T955 785T1020 498Q1020 331 956 214T786 36T556 -25ZM556 123Q685 123 761 225T837 498Q837 670 761 772T556 875Q428
875 353 773T277 498Q277 328 352 226T556 123ZM507 1174L274 1464H458L643 1174H507Z" />
<glyph unicode="&#xf3;" horiz-adv-x="1112" d="M556 -25Q431 -25 326 36T158 214T94 498Q94 668 157 784T326 961T556 1022Q681 1022 786 962T955 785T1020 498Q1020 331 956 214T786 36T556 -25ZM556 123Q685 123 761 225T837 498Q837 670 761 772T556 875Q428
875 353 773T277 498Q277 328 352 226T556 123ZM452 1174L637 1464H821L588 1174H452Z" />
<glyph unicode="&#xf4;" horiz-adv-x="1112" d="M556 -25Q431 -25 326 36T158 214T94 498Q94 668 157 784T326 961T556 1022Q681 1022 786 962T955 785T1020 498Q1020 331 956 214T786 36T556 -25ZM556 123Q685 123 761 225T837 498Q837 670 761 772T556 875Q428
875 353 773T277 498Q277 328 352 226T556 123ZM545 1174L738 1464H885L1079 1174H951L815 1359H807L672 1174H545Z" />
<glyph unicode="&#xf5;" horiz-adv-x="1112" d="M556 -25Q431 -25 326 36T158 214T94 498Q94 668 157 784T326 961T556 1022Q681 1022 786 962T955 785T1020 498Q1020 331 956 214T786 36T556 -25ZM556 123Q685 123 761 225T837 498Q837 670 761 772T556 875Q428
875 353 773T277 498Q277 328 352 226T556 123ZM267 1186Q276 1281 318 1343T437 1406Q489 1406 529 1380T604 1329T671 1303Q728 1303 746 1406H845Q836 1311 794 1249T676 1186Q623 1186 584 1211T510 1263T441 1289Q385 1289 367 1186H267Z" />
<glyph unicode="&#xf6;" horiz-adv-x="1112" d="M556 -25Q431 -25 326 36T158 214T94 498Q94 668 157 784T326 961T556 1022Q681 1022 786 962T955 785T1020 498Q1020 331 956 214T786 36T556 -25ZM556 123Q685 123 761 225T837 498Q837 670 761 772T556 875Q428
875 353 773T277 498Q277 328 352 226T556 123ZM378 1122Q334 1122 305 1151T275 1226Q275 1270 304 1299T378 1328Q423 1328 452 1299T481 1226Q481 1181 452 1152T378 1122ZM735 1122Q690 1122 662 1151T633 1226Q633 1270 661 1299T735 1328Q780 1328 809 1299T838
1226Q838 1181 809 1152T735 1122Z" />
<glyph unicode="&#xf7;" horiz-adv-x="1023" d="M70 609V742H953V609H70ZM512 194Q463 194 430 225T396 307Q396 357 429 388T512 420Q560 420 593 389T627 307Q627 257 594 226T512 194ZM512 931Q463 931 430 962T396 1044Q396 1094 429 1125T512 1157Q560 1157
593 1126T627 1044Q627 994 594 963T512 931Z" />
<glyph unicode="&#xf8;" horiz-adv-x="1112" d="M173 -47L94 14L204 146Q153 212 123 300T93 497Q93 664 157 781T328 960T556 1022Q717 1022 840 921L941 1044L1018 983L909 851Q960 785 990 696T1020 497Q1020 332 955 215T785 37T556 -25Q395 -25 273 76L173
-47ZM556 118Q640 118 705 164T807 295T845 489Q845 624 798 715L371 195Q448 118 556 118ZM314 282L741 801Q668 879 556 879Q473 879 408 832T306 701T268 506Q268 372 314 282Z" />
<glyph unicode="&#xf9;" horiz-adv-x="1117" d="M458 -25Q295 -25 224 74T152 364V997H331V388Q331 250 372 190T514 129Q594 129 650 168T775 293V997H952V0H806L791 155H785Q716 74 641 25T458 -25ZM500 1174L267 1464H451L636 1174H500Z" />
<glyph unicode="&#xfa;" horiz-adv-x="1117" d="M458 -25Q295 -25 224 74T152 364V997H331V388Q331 250 372 190T514 129Q594 129 650 168T775 293V997H952V0H806L791 155H785Q716 74 641 25T458 -25ZM445 1174L630 1464H814L581 1174H445Z" />
<glyph unicode="&#xfb;" horiz-adv-x="1117" d="M458 -25Q295 -25 224 74T152 364V997H331V388Q331 250 372 190T514 129Q594 129 650 168T775 293V997H952V0H806L791 155H785Q716 74 641 25T458 -25ZM538 1174L731 1464H878L1072 1174H944L808 1359H800L665 1174H538Z" />
<glyph unicode="&#xfc;" horiz-adv-x="1117" d="M458 -25Q295 -25 224 74T152 364V997H331V388Q331 250 372 190T514 129Q594 129 650 168T775 293V997H952V0H806L791 155H785Q716 74 641 25T458 -25ZM627 1122Q583 1122 554 1151T524 1226Q524 1270 553 1299T627
1328Q672 1328 701 1299T730 1226Q730 1181 701 1152T627 1122ZM984 1122Q939 1122 911 1151T882 1226Q882 1270 910 1299T984 1328Q1029 1328 1058 1299T1087 1226Q1087 1181 1058 1152T984 1122Z" />
<glyph unicode="&#xfd;" horiz-adv-x="964" d="M189 -426Q154 -426 125 -421T71 -406L105 -265Q120 -270 141 -275T180 -280Q264 -280 318 -221T401 -72L424 0L25 997H208L406 454Q429 389 454 316T502 173H510Q532 241 552 314T592 454L765 997H940L567 -77Q531
-177 482 -256T362 -380T189 -426ZM378 1174L563 1464H747L514 1174H378Z" />
<glyph unicode="&#xfe;" horiz-adv-x="1140" d="M166 -417V1457H343V1063L340 895Q406 947 483 984T640 1022Q836 1022 939 884T1043 514Q1043 344 983 224T824 39T612 -25Q540 -25 474 4T340 85L343 -83V-417H166ZM581 125Q701 125 779 227T858 513Q858 675 799
774T603 873Q541 873 478 839T343 740V226Q409 170 470 148T581 125Z" />
<glyph unicode="&#xff;" horiz-adv-x="964" d="M189 -426Q154 -426 125 -421T71 -406L105 -265Q120 -270 141 -275T180 -280Q264 -280 318 -221T401 -72L424 0L25 997H208L406 454Q429 389 454 316T502 173H510Q532 241 552 314T592 454L765 997H940L567 -77Q531
-177 482 -256T362 -380T189 -426ZM560 1122Q516 1122 487 1151T457 1226Q457 1270 486 1299T560 1328Q605 1328 634 1299T663 1226Q663 1181 634 1152T560 1122ZM917 1122Q872 1122 844 1151T815 1226Q815 1270 843 1299T917 1328Q962 1328 991 1299T1020 1226Q1020
1181 991 1152T917 1122Z" />
<glyph unicode="&#x2013;" horiz-adv-x="983" d="M85 454V576H899V454H85Z" />
<glyph unicode="&#x2014;" horiz-adv-x="1638" d="M85 454V576H1554V454H85Z" />
<glyph unicode="&#x2018;" horiz-adv-x="518" d="M250 832Q187 832 145 882T103 1023Q103 1155 166 1257T337 1423L391 1343Q312 1292 272 1218T232 1055Q238 1057 251 1057Q294 1057 328 1029T362 948Q362 895 331 864T250 832Z" />
<glyph unicode="&#x2019;" horiz-adv-x="518" d="M269 1431Q332 1431 374 1381T416 1240Q416 1108 353 1006T182 840L128 920Q207 971 247 1045T287 1208Q281 1206 268 1206Q225 1206 191 1234T157 1315Q157 1368 188 1399T269 1431Z" />
<glyph unicode="&#x201a;" horiz-adv-x="518" d="M269 259Q332 259 374 209T416 68Q416 -64 353 -166T182 -332L128 -252Q207 -201 247 -127T287 36Q281 34 268 34Q225 34 191 62T157 143Q157 196 188 227T269 259Z" />
<glyph unicode="&#x201c;" horiz-adv-x="888" d="M256 832Q193 832 151 882T109 1023Q109 1155 172 1257T343 1423L397 1343Q318 1292 278 1218T238 1055Q244 1057 257 1057Q300 1057 334 1029T368 948Q368 895 337 864T256 832ZM629 832Q566 832 524 882T482
1023Q482 1155 545 1257T716 1423L770 1343Q691 1292 651 1218T611 1055Q617 1057 630 1057Q673 1057 707 1029T741 948Q741 895 710 864T629 832Z" />
<glyph unicode="&#x201d;" horiz-adv-x="888" d="M269 1431Q332 1431 374 1381T416 1240Q416 1108 353 1006T182 840L128 920Q207 971 247 1045T287 1208Q281 1206 268 1206Q225 1206 191 1234T157 1315Q157 1368 188 1399T269 1431ZM637 1431Q700 1431 742 1381T784
1240Q784 1108 721 1006T550 840L496 920Q575 971 615 1045T655 1208Q649 1206 636 1206Q593 1206 559 1234T525 1315Q525 1368 556 1399T637 1431Z" />
<glyph unicode="&#x201e;" horiz-adv-x="888" d="M269 259Q332 259 374 209T416 68Q416 -64 353 -166T182 -332L128 -252Q207 -201 247 -127T287 36Q281 34 268 34Q225 34 191 62T157 143Q157 196 188 227T269 259ZM640 259Q703 259 745 209T787 68Q787 -64 724
-166T553 -332L499 -252Q578 -201 618 -127T658 36Q652 34 639 34Q596 34 562 62T528 143Q528 196 559 227T640 259Z" />
<glyph unicode="&#x2022;" horiz-adv-x="629" d="M314 290Q221 290 152 358T82 539Q82 650 151 719T314 789Q408 789 478 720T548 539Q548 427 478 359T314 290Z" />
<glyph unicode="&#x2039;" horiz-adv-x="558" d="M372 134L93 450V583L372 899L447 836L207 516L447 194L372 134Z" />
<glyph unicode="&#x203a;" horiz-adv-x="558" d="M185 134L464 450V583L185 899L110 836L350 516L110 194L185 134Z" />
</font>
</defs>
</svg>
